<?xml version="1.0" encoding="UTF-8" standalone="no"?>
<!-- Created with Inkscape (http://www.inkscape.org/) -->

<svg
   xmlns:dc="http://purl.org/dc/elements/1.1/"
   xmlns:cc="http://creativecommons.org/ns#"
   xmlns:rdf="http://www.w3.org/1999/02/22-rdf-syntax-ns#"
   xmlns:svg="http://www.w3.org/2000/svg"
   xmlns="http://www.w3.org/2000/svg"
   xmlns:sodipodi="http://sodipodi.sourceforge.net/DTD/sodipodi-0.dtd"
   xmlns:inkscape="http://www.inkscape.org/namespaces/inkscape"
   width="4in"
   height="2in"
   viewBox="0 0 101.6 50.800001"
   version="1.1"
   id="svg8"
   inkscape:version="0.92.5 (2060ec1f9f, 2020-04-08)"
   sodipodi:docname="RUSPS_Logo_2x4_sticker.svg">
  <defs
     id="defs2">
    <clipPath
       id="clipPath3585"
       clipPathUnits="userSpaceOnUse">
      <rect
         y="101.75"
         x="-259"
         height="52.5"
         width="81.5"
         id="rect3587"
         style="opacity:1;fill:none;fill-opacity:1;stroke:#000000;stroke-width:0.60000002;stroke-miterlimit:4;stroke-dasharray:none;stroke-opacity:1" />
    </clipPath>
    <clipPath
       id="clipPath3607"
       clipPathUnits="userSpaceOnUse">
      <rect
         y="166.99419"
         x="12"
         height="64.005806"
         width="219.00002"
         id="rect3609"
         style="opacity:1;fill:#000000;fill-opacity:1;stroke:none;stroke-width:2.3095057;stroke-miterlimit:4;stroke-dasharray:none;stroke-opacity:1" />
    </clipPath>
    <clipPath
       id="clipPath3611"
       clipPathUnits="userSpaceOnUse">
      <rect
         y="243.49419"
         x="21.75"
         height="64.005806"
         width="219.00002"
         id="rect3613"
         style="opacity:1;fill:#000000;fill-opacity:1;stroke:none;stroke-width:2.3095057;stroke-miterlimit:4;stroke-dasharray:none;stroke-opacity:1" />
    </clipPath>
    <clipPath
       id="clipPath3895"
       clipPathUnits="userSpaceOnUse">
      <rect
         y="206"
         x="10"
         height="21.33642"
         width="139.85461"
         id="rect3897"
         style="opacity:1;fill:#000000;fill-opacity:1;stroke:none;stroke-width:0.58641523;stroke-miterlimit:4;stroke-dasharray:none;stroke-opacity:1" />
    </clipPath>
    <clipPath
       id="clipPath3611-7-0"
       clipPathUnits="userSpaceOnUse">
      <rect
         y="243.49419"
         x="21.75"
         height="64.005806"
         width="219.00002"
         id="rect3613-7-2"
         style="opacity:1;fill:#000000;fill-opacity:1;stroke:none;stroke-width:2.3095057;stroke-miterlimit:4;stroke-dasharray:none;stroke-opacity:1" />
    </clipPath>
    <clipPath
       id="clipPath3611-7-9"
       clipPathUnits="userSpaceOnUse">
      <rect
         y="243.49419"
         x="21.75"
         height="64.005806"
         width="219.00002"
         id="rect3613-7-3"
         style="opacity:1;fill:#000000;fill-opacity:1;stroke:none;stroke-width:2.3095057;stroke-miterlimit:4;stroke-dasharray:none;stroke-opacity:1" />
    </clipPath>
    <clipPath
       id="clipPath4153"
       clipPathUnits="userSpaceOnUse">
      <rect
         style="opacity:1;fill:#000000;fill-opacity:1;stroke:none;stroke-width:2.10575533;stroke-miterlimit:4;stroke-dasharray:none;stroke-opacity:1"
         id="rect4155"
         width="219.00002"
         height="53.210461"
         x="21.75"
         y="254.28954" />
    </clipPath>
    <clipPath
       id="clipPath4153-9"
       clipPathUnits="userSpaceOnUse">
      <rect
         style="opacity:1;fill:#000000;fill-opacity:1;stroke:none;stroke-width:2.10575533;stroke-miterlimit:4;stroke-dasharray:none;stroke-opacity:1"
         id="rect4155-4"
         width="219.00002"
         height="53.210461"
         x="21.75"
         y="254.28954" />
    </clipPath>
    <clipPath
       id="clipPath3611-7-1"
       clipPathUnits="userSpaceOnUse">
      <rect
         y="243.49419"
         x="21.75"
         height="64.005806"
         width="219.00002"
         id="rect3613-7-4"
         style="opacity:1;fill:#000000;fill-opacity:1;stroke:none;stroke-width:2.3095057;stroke-miterlimit:4;stroke-dasharray:none;stroke-opacity:1" />
    </clipPath>
    <clipPath
       id="clipPath4153-1"
       clipPathUnits="userSpaceOnUse">
      <rect
         style="opacity:1;fill:#000000;fill-opacity:1;stroke:none;stroke-width:2.10575533;stroke-miterlimit:4;stroke-dasharray:none;stroke-opacity:1"
         id="rect4155-5"
         width="219.00002"
         height="53.210461"
         x="21.75"
         y="254.28954" />
    </clipPath>
    <clipPath
       id="clipPath4527"
       clipPathUnits="userSpaceOnUse">
      <rect
         style="opacity:1;fill:#4f4f4f;fill-opacity:1;stroke:none;stroke-width:2.3095057;stroke-miterlimit:4;stroke-dasharray:none;stroke-opacity:1"
         id="rect4529"
         width="219.00002"
         height="64.005806"
         x="21.75"
         y="243.49419" />
    </clipPath>
    <clipPath
       id="clipPath4527-9"
       clipPathUnits="userSpaceOnUse">
      <rect
         style="opacity:1;fill:#4f4f4f;fill-opacity:1;stroke:none;stroke-width:2.3095057;stroke-miterlimit:4;stroke-dasharray:none;stroke-opacity:1"
         id="rect4529-6"
         width="219.00002"
         height="64.005806"
         x="21.75"
         y="243.49419" />
    </clipPath>
    <clipPath
       id="clipPath4527-3"
       clipPathUnits="userSpaceOnUse">
      <rect
         style="opacity:1;fill:#4f4f4f;fill-opacity:1;stroke:none;stroke-width:2.3095057;stroke-miterlimit:4;stroke-dasharray:none;stroke-opacity:1"
         id="rect4529-8"
         width="219.00002"
         height="64.005806"
         x="21.75"
         y="243.49419" />
    </clipPath>
    <clipPath
       id="clipPath4527-8"
       clipPathUnits="userSpaceOnUse">
      <rect
         style="opacity:1;fill:#4f4f4f;fill-opacity:1;stroke:none;stroke-width:2.3095057;stroke-miterlimit:4;stroke-dasharray:none;stroke-opacity:1"
         id="rect4529-4"
         width="219.00002"
         height="64.005806"
         x="21.75"
         y="243.49419" />
    </clipPath>
    <mask
       id="mask4987"
       maskUnits="userSpaceOnUse">
      <g
         style="stroke:#ffffff;stroke-opacity:1"
         clip-path="none"
         transform="matrix(1.2637795,0,0,1.2637795,-33.763776,-34.999013)"
         id="g5053">
        <g
           id="g5051">
          <g
             id="g5005"
             transform="matrix(-0.76459336,0,0,0.85221813,231.80552,-48.191017)"
             clip-path="none"
             style="stroke:#ffffff;stroke-opacity:1">
            <g
               id="g5003"
               clip-path="url(#clipPath4527-8)"
               transform="translate(2.069799,-5.570949)"
               style="stroke:#ffffff;stroke-opacity:1">
              <g
                 id="g5001"
                 style="stroke:#ffffff;stroke-opacity:1">
                <g
                   clip-path="none"
                   transform="translate(4.0917596e-8,2.1904819e-6)"
                   id="g4997"
                   style="stroke:#ffffff;stroke-opacity:1">
                  <g
                     id="g4995"
                     style="stroke:#ffffff;stroke-opacity:1">
                    <ellipse
                       transform="rotate(150)"
                       ry="39"
                       rx="94.25"
                       cy="-244.02623"
                       cx="-10.665837"
                       id="ellipse4989"
                       style="opacity:1;fill:none;fill-opacity:1;stroke:#ffffff;stroke-width:2;stroke-miterlimit:4;stroke-dasharray:none;stroke-opacity:1" />
                    <g
                       transform="translate(8.0833496e-7,-4.3968377e-6)"
                       id="g4993"
                       clip-path="none"
                       style="fill:#ffffff;fill-opacity:1;stroke:#ffffff;stroke-opacity:1">
                      <ellipse
                         style="opacity:1;fill:#ffffff;fill-opacity:1;stroke:#ffffff;stroke-width:0.743294;stroke-miterlimit:4;stroke-dasharray:none;stroke-opacity:1"
                         id="ellipse4991"
                         cx="78.934616"
                         cy="-264.37708"
                         transform="scale(1,-1)"
                         rx="4.5775967"
                         ry="4.4002819" />
                    </g>
                  </g>
                </g>
                <ellipse
                   transform="matrix(-0.84309439,0.5377656,-0.46315934,-0.88627503,0,0)"
                   ry="31.565546"
                   rx="72.584671"
                   cy="-240.86694"
                   cx="-14.762202"
                   id="ellipse4999"
                   style="opacity:1;fill:none;fill-opacity:1;stroke:#ffffff;stroke-width:1.57901454;stroke-miterlimit:4;stroke-dasharray:none;stroke-opacity:1" />
              </g>
            </g>
          </g>
          <g
             id="g5031"
             transform="translate(0.2875345,1.2451752)"
             style="fill:#ffffff;fill-opacity:1;stroke:#ffffff;stroke-opacity:1">
            <g
               id="g5009"
               style="font-style:normal;font-variant:normal;font-weight:normal;font-stretch:normal;font-size:40px;line-height:1.25;font-family:'Cambria Math';-inkscape-font-specification:'Cambria Math';letter-spacing:0px;word-spacing:0px;fill:#ffffff;fill-opacity:1;stroke:#ffffff;stroke-opacity:1"
               aria-label="&lt;"
               transform="matrix(0.85,0,0,1.7137376,11.328611,-89.977971)">
              <path
                 id="path5007"
                 d="m 28.719557,128.56168 v -2.73438 l 24.140625,-10.76172 v 2.92969 l -21.210938,9.19922 21.210938,9.19922 v 2.92968 z"
                 inkscape:connector-curvature="0"
                 style="fill:#ffffff;fill-opacity:1;stroke:#ffffff;stroke-opacity:1" />
            </g>
            <g
               id="g5015"
               style="font-style:normal;font-variant:normal;font-weight:normal;font-stretch:normal;font-size:40px;line-height:1.25;font-family:Tahoma;-inkscape-font-specification:Tahoma;letter-spacing:0px;word-spacing:0px;fill:#ffffff;fill-opacity:1;stroke:#ffffff;stroke-opacity:1"
               aria-label="RU ">
              <path
                 id="path5011"
                 d="m 86.404228,142.50195 h -5.019531 l -9.21875,-11.5625 h -4.414063 v 11.5625 h -3.867187 v -29.08203 h 7.5 q 2.5,0 4.179687,0.27344 1.699219,0.27344 3.222657,1.26953 1.523437,0.97656 2.402343,2.51953 0.898438,1.54297 0.898438,3.82813 0,3.20312 -1.621094,5.35156 -1.621094,2.14844 -4.414062,3.18359 z m -8.359375,-20.89843 q 0,-1.26954 -0.449219,-2.2461 -0.449218,-0.99609 -1.386718,-1.62109 -0.820313,-0.54688 -1.914063,-0.76172 -1.09375,-0.23438 -2.714844,-0.23438 h -3.828125 v 10.97657 h 3.398438 q 1.660156,0 2.988281,-0.29297 1.328125,-0.29297 2.265625,-1.21094 0.839844,-0.82031 1.230469,-1.95312 0.410156,-1.13282 0.410156,-2.65625 z"
                 inkscape:connector-curvature="0" />
              <path
                 id="path5013"
                 d="m 98.884697,143.10742 q -2.558594,0 -4.472656,-0.66406 -1.914063,-0.68359 -3.261719,-2.01172 -1.523438,-1.52344 -2.148438,-3.63281 -0.625,-2.12891 -0.625,-5.23438 v -18.14453 h 3.867188 v 18.14453 q 0,2.01172 0.253906,3.39844 0.253906,1.36719 0.996094,2.46094 0.78125,1.17187 2.109375,1.77734 1.347656,0.60547 3.28125,0.60547 1.816403,0 3.222653,-0.60547 1.40625,-0.60547 2.1875,-1.77734 0.72266,-1.11328 0.97657,-2.46094 0.27343,-1.34766 0.27343,-3.30078 v -18.24219 h 3.86719 v 18.14453 q 0,3.02735 -0.625,5.19532 -0.60547,2.16796 -2.14844,3.67187 -1.38672,1.34766 -3.24218,2.01172 -1.83594,0.66406 -4.511723,0.66406 z"
                 inkscape:connector-curvature="0" />
            </g>
            <g
               id="g5019"
               style="font-style:normal;font-variant:normal;font-weight:normal;font-stretch:normal;font-size:40px;line-height:1.25;font-family:'Cambria Math';-inkscape-font-specification:'Cambria Math';letter-spacing:0px;word-spacing:0px;fill:#ffffff;fill-opacity:1;stroke:#ffffff;stroke-opacity:1"
               aria-label="&lt;"
               transform="matrix(-1,0,0,1.7137376,250.2148,-89.977961)">
              <path
                 id="path5017"
                 d="m 30.530104,128.56168 v -2.73438 l 20.519531,-10.76172 v 2.92969 l -18.029297,9.19922 18.029297,9.19922 v 2.92968 z"
                 inkscape:connector-curvature="0"
                 style="fill:#ffffff;fill-opacity:1;stroke:#ffffff;stroke-width:0.92195445;stroke-opacity:1" />
            </g>
            <path
               inkscape:connector-curvature="0"
               id="path5021"
               d="m 119.74372,106.67871 v 41.93548 0"
               style="fill:#ffffff;fill-opacity:1;stroke:#ffffff;stroke-width:3;stroke-linecap:butt;stroke-linejoin:miter;stroke-miterlimit:4;stroke-dasharray:none;stroke-opacity:1" />
            <g
               id="g5029"
               style="font-style:normal;font-variant:normal;font-weight:normal;font-stretch:normal;font-size:40px;line-height:1.25;font-family:'Cambria Math';-inkscape-font-specification:'Cambria Math';letter-spacing:0px;word-spacing:0px;fill:#ffffff;fill-opacity:1;stroke:#ffffff;stroke-opacity:1"
               aria-label="SPS">
              <path
                 id="path5023"
                 style="font-style:normal;font-variant:normal;font-weight:normal;font-stretch:normal;font-family:Tahoma;-inkscape-font-specification:Tahoma;fill:#ffffff;fill-opacity:1;stroke:#ffffff;stroke-opacity:1"
                 d="m 137.00899,143.06836 q -3.16407,0 -5.39063,-0.64453 -2.20703,-0.66406 -4.16015,-1.6211 v -4.84375 h 0.27343 q 1.91407,1.79688 4.33594,2.79297 2.42188,0.97657 4.66797,0.97657 3.20312,0 4.84375,-1.32813 1.64062,-1.34766 1.64062,-3.53516 0,-1.73828 -0.85937,-2.83203 -0.85938,-1.09375 -2.73438,-1.62109 -1.34765,-0.39063 -2.46093,-0.64453 -1.11328,-0.25391 -2.79297,-0.6836 -1.50391,-0.39062 -2.69531,-0.99609 -1.19141,-0.60547 -2.10938,-1.58203 -0.89844,-0.95703 -1.40625,-2.24609 -0.48828,-1.3086 -0.48828,-3.00782 0,-3.53515 2.75391,-5.91797 2.7539,-2.40234 7.03125,-2.40234 2.4414,0 4.60937,0.48828 2.1875,0.48828 4.04297,1.38672 v 4.62891 h -0.29297 q -1.38672,-1.26953 -3.55469,-2.20703 -2.16797,-0.95704 -4.55078,-0.95704 -2.69531,0 -4.35547,1.26954 -1.66015,1.25 -1.66015,3.30078 0,1.85547 0.97656,2.94922 0.97656,1.09375 2.83203,1.60156 1.23047,0.33203 3.00781,0.76172 1.77735,0.41015 2.94922,0.76172 3.00781,0.91796 4.39453,2.77343 1.38672,1.85547 1.38672,4.57032 0,1.69921 -0.70312,3.35937 -0.6836,1.66016 -1.9336,2.8125 -1.40625,1.26953 -3.18359,1.95313 -1.75781,0.68359 -4.41406,0.68359 z"
                 inkscape:connector-curvature="0" />
              <path
                 id="path5025"
                 style="font-style:normal;font-variant:normal;font-weight:normal;font-stretch:normal;font-family:Tahoma;-inkscape-font-specification:Tahoma;fill:#ffffff;fill-opacity:1;stroke:#ffffff;stroke-opacity:1"
                 d="m 169.52852,122.22852 q 0,1.89453 -0.6836,3.59375 -0.66406,1.67968 -1.85546,2.87109 -1.50391,1.48437 -3.53516,2.24609 -2.03125,0.76172 -5.13672,0.76172 h -3.28125 v 10.83985 h -3.86719 v -29.08204 h 7.30469 q 2.57813,0 4.39453,0.42969 1.81641,0.42969 3.20313,1.38672 1.62109,1.11328 2.53906,2.83203 0.91797,1.69922 0.91797,4.1211 z m -4.02344,0.0977 q 0,-1.5039 -0.52734,-2.61719 -0.50782,-1.11328 -1.5625,-1.8164 -0.91797,-0.60547 -2.14844,-0.85938 -1.21094,-0.2539 -3.02734,-0.2539 h -3.20313 v 11.62109 h 2.63672 q 2.34375,0 3.78906,-0.37109 1.44531,-0.39063 2.40235,-1.36719 0.85937,-0.87891 1.25,-1.91406 0.39062,-1.03516 0.39062,-2.42188 z"
                 inkscape:connector-curvature="0" />
              <path
                 id="path5027"
                 style="font-style:normal;font-variant:normal;font-weight:normal;font-stretch:normal;font-family:Tahoma;-inkscape-font-specification:Tahoma;fill:#ffffff;fill-opacity:1;stroke:#ffffff;stroke-opacity:1"
                 d="m 181.30586,143.06836 q -3.16406,0 -5.39062,-0.64453 -2.20703,-0.66406 -4.16016,-1.6211 v -4.84375 h 0.27344 q 1.91406,1.79688 4.33594,2.79297 2.42187,0.97657 4.66796,0.97657 3.20313,0 4.84375,-1.32813 1.64063,-1.34766 1.64063,-3.53516 0,-1.73828 -0.85938,-2.83203 -0.85937,-1.09375 -2.73437,-1.62109 -1.34766,-0.39063 -2.46094,-0.64453 -1.11328,-0.25391 -2.79297,-0.6836 -1.5039,-0.39062 -2.69531,-0.99609 -1.19141,-0.60547 -2.10937,-1.58203 -0.89844,-0.95703 -1.40625,-2.24609 -0.48829,-1.3086 -0.48829,-3.00782 0,-3.53515 2.75391,-5.91797 2.75391,-2.40234 7.03125,-2.40234 2.44141,0 4.60938,0.48828 2.1875,0.48828 4.04296,1.38672 v 4.62891 h -0.29296 q -1.38672,-1.26953 -3.55469,-2.20703 -2.16797,-0.95704 -4.55078,-0.95704 -2.69532,0 -4.35547,1.26954 -1.66016,1.25 -1.66016,3.30078 0,1.85547 0.97656,2.94922 0.97657,1.09375 2.83204,1.60156 1.23046,0.33203 3.00781,0.76172 1.77734,0.41015 2.94922,0.76172 3.00781,0.91796 4.39453,2.77343 1.38672,1.85547 1.38672,4.57032 0,1.69921 -0.70313,3.35937 -0.68359,1.66016 -1.93359,2.8125 -1.40625,1.26953 -3.1836,1.95313 -1.75781,0.68359 -4.41406,0.68359 z"
                 inkscape:connector-curvature="0" />
            </g>
          </g>
          <g
             id="g5049"
             transform="matrix(0.76459336,0,0,-0.85221813,27.934655,305.98749)"
             clip-path="none"
             style="stroke:#ffffff;stroke-opacity:1">
            <g
               id="g5047"
               clip-path="url(#clipPath4527)"
               transform="translate(2.069799,-5.570949)"
               style="stroke:#ffffff;stroke-opacity:1">
              <g
                 id="g5045"
                 style="stroke:#ffffff;stroke-opacity:1">
                <g
                   clip-path="none"
                   transform="translate(4.0917596e-8,2.1904819e-6)"
                   id="g5041"
                   style="stroke:#ffffff;stroke-opacity:1">
                  <g
                     id="g5039"
                     style="stroke:#ffffff;stroke-opacity:1">
                    <path
                       id="path5033"
                       d="m 83.584163,-244.02623 a 94.25,39 0 0 1 -94.25,39 94.25,39 0 0 1 -94.250003,-39 94.25,39 0 0 1 94.250003,-39 94.25,39 0 0 1 94.25,39 z"
                       style="opacity:1;fill:none;fill-opacity:1;stroke:#ffffff;stroke-width:2;stroke-miterlimit:4;stroke-dasharray:none;stroke-opacity:1"
                       transform="rotate(150)"
                       inkscape:connector-curvature="0" />
                    <g
                       transform="translate(8.0833496e-7,-4.3968377e-6)"
                       id="g5037"
                       clip-path="none"
                       style="fill:#ffffff;fill-opacity:1;stroke:#ffffff;stroke-opacity:1">
                      <path
                         id="path5035"
                         d="m 83.512213,-264.37708 a 4.5775967,4.4002819 0 0 1 -4.577597,4.40029 4.5775967,4.4002819 0 0 1 -4.577597,-4.40029 4.5775967,4.4002819 0 0 1 4.577597,-4.40028 4.5775967,4.4002819 0 0 1 4.577597,4.40028 z"
                         style="opacity:1;fill:#ffffff;fill-opacity:1;stroke:#ffffff;stroke-width:0.743294;stroke-miterlimit:4;stroke-dasharray:none;stroke-opacity:1"
                         transform="scale(1,-1)"
                         inkscape:connector-curvature="0" />
                    </g>
                  </g>
                </g>
                <path
                   id="path5043"
                   d="m 57.822469,-240.86694 a 72.584671,31.565546 0 0 1 -72.584671,31.56554 72.584671,31.565546 0 0 1 -72.584671,-31.56554 72.584671,31.565546 0 0 1 72.584671,-31.56555 72.584671,31.565546 0 0 1 72.584671,31.56555 z"
                   style="opacity:1;fill:none;fill-opacity:1;stroke:#ffffff;stroke-width:1.57901454;stroke-miterlimit:4;stroke-dasharray:none;stroke-opacity:1"
                   transform="matrix(-0.84309439,0.5377656,-0.46315934,-0.88627503,0,0)"
                   inkscape:connector-curvature="0" />
              </g>
            </g>
          </g>
        </g>
      </g>
    </mask>
  </defs>
  <sodipodi:namedview
     id="base"
     pagecolor="#000000"
     bordercolor="#666666"
     borderopacity="1.0"
     inkscape:pageopacity="1"
     inkscape:pageshadow="2"
     inkscape:zoom="1.4"
     inkscape:cx="114.50557"
     inkscape:cy="154.79334"
     inkscape:document-units="mm"
     inkscape:current-layer="layer1"
     showgrid="false"
     units="in" />
  <metadata
     id="metadata5">
    <rdf:RDF>
      <cc:Work
         rdf:about="">
        <dc:format>image/svg+xml</dc:format>
        <dc:type
           rdf:resource="http://purl.org/dc/dcmitype/StillImage" />
        <dc:title></dc:title>
      </cc:Work>
    </rdf:RDF>
  </metadata>
  <g
     inkscape:label="Layer 1"
     inkscape:groupmode="layer"
     id="layer1"
     transform="translate(0,-246.19998)">
    <g
       id="layer1-6"
       inkscape:label="Layer 1"
       transform="matrix(0.35591729,0,0,0.35591729,5.2344942,226.07819)">
      <g
         id="g1674"
         transform="matrix(0.96627741,0,0,1.0770158,9.333515,-87.196123)"
         style="stroke:#ffffff;stroke-opacity:1">
        <rect
           transform="translate(0.65394238,63.364059)"
           clip-path="url(#clipPath3607)"
           y="28"
           x="12"
           height="64.005806"
           width="219"
           id="rect1670"
           style="opacity:1;fill:#000000;fill-opacity:1;stroke:#ffffff;stroke-width:2.3095057;stroke-miterlimit:4;stroke-dasharray:none;stroke-opacity:1" />
      </g>
      <rect
         mask="url(#mask4987)"
         style="opacity:1;fill:#f9f9f9;fill-opacity:1;stroke:none;stroke-width:0.61423707;stroke-miterlimit:4;stroke-dasharray:none;stroke-opacity:1"
         id="rect4683"
         width="233.58493"
         height="124.15192"
         x="11.230272"
         y="65.823959" />
    </g>
  </g>
</svg>
